<svg width="12" height="12" viewBox="0 0 12 12" fill="none" xmlns="http://www.w3.org/2000/svg">
<path fill-rule="evenodd" clip-rule="evenodd" d="M6.00003 0.958008C6.09949 0.958008 6.19487 0.997516 6.2652 1.06784L10.9319 5.73451C11.0783 5.88096 11.0783 6.11839 10.9319 6.26484C10.7854 6.41129 10.548 6.41129 10.4015 6.26484L6.37503 2.23834V10.6663C6.37503 10.8734 6.20714 11.0413 6.00003 11.0413C5.79292 11.0413 5.62503 10.8734 5.62503 10.6663V2.23834L1.59854 6.26484C1.45209 6.41129 1.21466 6.41129 1.06821 6.26484C0.921763 6.11839 0.921762 5.88096 1.06821 5.73451L5.73487 1.06784C5.80519 0.997517 5.90057 0.958008 6.00003 0.958008Z" fill="black"/>
</svg>
